<?xml version="1.0" encoding="utf-8"?>
<!-- Generator: Adobe Illustrator 23.0.1, SVG Export Plug-In . SVG Version: 6.00 Build 0)  -->
<svg version="1.1" id="Layer_1" xmlns="http://www.w3.org/2000/svg" xmlns:xlink="http://www.w3.org/1999/xlink" x="0px" y="0px"
	 viewBox="0 0 375.1 400.1" style="enable-background:new 0 0 375.1 400.1;" xml:space="preserve">
<style type="text/css">
	.st0{fill:#635139;}
</style>
<g>
	<path class="st0" d="M281.75,144.34c4.93-1.93,8.01-6.2,8.48-11.89c0.06-0.55,0.17-1.08,0.17-1.65c0-1.07-0.12-2.11-0.33-3.11
		c-0.93-4.96-3.99-8.72-8.41-10.48c-1.91-0.88-4.02-1.41-6.26-1.41c-8.28,0-15,6.72-15,15c0,8.28,6.72,15,15,15
		C277.68,145.8,279.82,145.25,281.75,144.34z"/>
	<path class="st0" d="M200.49,33c-92.65,0-167.81,74.86-168.33,167.39l61,30.25c-0.24,0.32-0.47,0.62-0.71,0.94
		c-2.76,3.79-5.63,7.83-8.54,12.01l-50.9-25.23c2.46,24.67,10.31,47.78,22.3,68.14c-23.72,36.83-44.88,72.13-47.54,76.16
		c-0.08,0.12,0.04,0.26,0.18,0.2c9.22-4.16,159.8-72.27,179-89.61c19.81-17.89,21.36-48.45,3.47-68.26s-48.45-21.36-68.26-3.47
		c-2.59,2.34-7.12,5.8-12.54,10.82c8.94-10.36,19.9-22.25,29.95-30.86c21.92-18.79,76.97-65.81,86.39-72.04
		c15.27-10.1,25.05-15.66,46.97-12.53c21.92,3.13,44.48,20.21,47.61,23.34c1.72,1.72,3.23,2.17,3.22,4.41
		c-0.01,1.85-0.3,3.77-3.07,6.66c-6.23,6.5-34.08,35.5-41.5,43.87c-8.81,9.94-17.78,22.48-21.75,34.98
		c-3.25,10.24-21.75,38.52-29.18,46.89c-4.52,5.1-14.69,16.13-28.66,26.34l103.53,51.34c39.96-30.78,65.72-79.08,65.72-133.41
		C368.84,108.37,293.47,33,200.49,33z"/>
	<path class="st0" d="M103.77,339.13c27.37,19.26,60.72,30.56,96.72,30.56c32.19,0,62.25-9.02,87.83-24.71l-104.02-51.6
		C170.41,301.12,130.89,323.75,103.77,339.13z"/>
</g>
</svg>
