<?xml version="1.0" encoding="utf-8"?>
<!-- Generator: Adobe Illustrator 23.0.1, SVG Export Plug-In . SVG Version: 6.00 Build 0)  -->
<svg version="1.1" id="Layer_1" xmlns="http://www.w3.org/2000/svg" xmlns:xlink="http://www.w3.org/1999/xlink" x="0px" y="0px"
	 viewBox="0 0 258 327" style="enable-background:new 0 0 258 327;" xml:space="preserve">
<style type="text/css">
	.st0{fill:#635139;}
</style>
<title>noSokhan-logo (Clean-Up)-01</title>
<desc>Created with Sketch.</desc>
<g>
	<path class="st0" d="M193.33,125.29c3.38-1.32,5.48-4.25,5.81-8.15c0.04-0.38,0.11-0.74,0.11-1.13c0-0.73-0.08-1.44-0.23-2.13
		c-0.63-3.4-2.74-5.98-5.76-7.18c-1.31-0.6-2.75-0.96-4.29-0.96c-5.68,0-10.28,4.6-10.28,10.28s4.6,10.28,10.28,10.28
		C190.54,126.28,192,125.91,193.33,125.29z"/>
	<path class="st0" d="M137.65,49C74.16,49,22.67,100.29,22.32,163.69l41.79,20.73c-0.16,0.22-0.32,0.42-0.49,0.65
		c-1.89,2.6-3.85,5.36-5.85,8.23L22.89,176c1.69,16.9,7.07,32.74,15.28,46.69C21.92,247.92,7.42,272.11,5.6,274.87
		c-0.05,0.08,0.03,0.18,0.12,0.14c6.32-2.85,109.49-49.52,122.64-61.4c13.57-12.26,14.63-33.2,2.37-46.77
		c-12.26-13.57-33.2-14.63-46.77-2.37c-1.78,1.61-4.88,3.97-8.59,7.41c6.12-7.1,13.64-15.24,20.52-21.14
		c15.02-12.87,52.74-45.09,59.19-49.36c10.46-6.92,17.16-10.73,32.18-8.58c15.02,2.15,30.48,13.84,32.62,15.99
		c1.18,1.18,2.21,1.48,2.21,3.02c-0.01,1.27-0.2,2.58-2.1,4.57c-4.27,4.45-23.35,24.32-28.43,30.06
		c-6.04,6.81-12.18,15.4-14.9,23.97c-2.23,7.02-14.9,26.39-19.99,32.13c-3.1,3.49-10.07,11.05-19.64,18.05l70.93,35.18
		c27.38-21.09,45.03-54.18,45.03-91.41C253,100.64,201.36,49,137.65,49z"/>
	<path class="st0" d="M71.38,258.75c18.75,13.19,41.6,20.94,66.27,20.94c22.06,0,42.65-6.18,60.18-16.93l-71.27-35.36
		C117.04,232.7,89.96,248.22,71.38,258.75z"/>
</g>
</svg>
